<svg width="496" height="356" xmlns="http://www.w3.org/2000/svg" xmlns:xlink="http://www.w3.org/1999/xlink" overflow="hidden"><defs><clipPath id="clip0"><path d="M63 77 559 77 559 433 63 433Z" fill-rule="evenodd" clip-rule="evenodd"/></clipPath><clipPath id="clip1"><path d="M64 287 165 287 165 419 64 419Z" fill-rule="evenodd" clip-rule="evenodd"/></clipPath><clipPath id="clip2"><path d="M64 287 165 287 165 419 64 419Z" fill-rule="evenodd" clip-rule="evenodd"/></clipPath><clipPath id="clip3"><path d="M64 287 165 287 165 419 64 419Z" fill-rule="evenodd" clip-rule="evenodd"/></clipPath><clipPath id="clip4"><path d="M64 287 165 287 165 419 64 419Z" fill-rule="evenodd" clip-rule="evenodd"/></clipPath><clipPath id="clip5"><path d="M181 304 241 304 241 363 181 363Z" fill-rule="evenodd" clip-rule="evenodd"/></clipPath><clipPath id="clip6"><path d="M181 304 241 304 241 363 181 363Z" fill-rule="evenodd" clip-rule="evenodd"/></clipPath><clipPath id="clip7"><path d="M181 304 241 304 241 363 181 363Z" fill-rule="evenodd" clip-rule="evenodd"/></clipPath><clipPath id="clip8"><path d="M181 304 241 304 241 363 181 363Z" fill-rule="evenodd" clip-rule="evenodd"/></clipPath><clipPath id="clip9"><path d="M107 366 170 366 170 428 107 428Z" fill-rule="evenodd" clip-rule="evenodd"/></clipPath><clipPath id="clip10"><path d="M107 366 170 366 170 428 107 428Z" fill-rule="evenodd" clip-rule="evenodd"/></clipPath><clipPath id="clip11"><path d="M107 366 170 366 170 428 107 428Z" fill-rule="evenodd" clip-rule="evenodd"/></clipPath><clipPath id="clip12"><path d="M107 366 170 366 170 428 107 428Z" fill-rule="evenodd" clip-rule="evenodd"/></clipPath><clipPath id="clip13"><path d="M450.893 375.164 469.595 379.247 465.844 396.43 447.141 392.347Z" fill-rule="evenodd" clip-rule="evenodd"/></clipPath><clipPath id="clip14"><path d="M450.893 375.164 469.595 379.247 465.844 396.43 447.141 392.347Z" fill-rule="evenodd" clip-rule="evenodd"/></clipPath><clipPath id="clip15"><path d="M450.893 375.164 469.595 379.247 465.844 396.43 447.141 392.347Z" fill-rule="evenodd" clip-rule="evenodd"/></clipPath></defs><g clip-path="url(#clip0)" transform="translate(-63 -77)"><g clip-path="url(#clip1)"><g clip-path="url(#clip2)"><g clip-path="url(#clip3)"><g clip-path="url(#clip4)"><path d="M73.6784 98.2691C75.8084 96.1587 79.2436 96.168 81.3622 98.2893 83.4758 100.411 83.4704 103.844 81.3485 105.958 81.3458 105.961 81.3426 105.964 81.3398 105.967L78.9485 108.34 82.1798 112.964 104.213 88.4711 90.9546 81.2078C84.4778 77.6455 76.3407 80.0084 72.7784 86.4845 70.5982 90.45 70.5687 95.2484 72.7009 99.24Z" fill="#E0B2CB" fill-rule="evenodd" transform="matrix(1.00634 0 -0 1 38.2011 207.909)"/><path d="M68.7267 199.899C68.7655 197.083 66.5907 194.767 63.87 194.728 63.8662 194.727 63.8629 194.727 63.8591 194.727L42.5789 194.727C39.8389 194.753 37.6322 197.063 37.6364 199.899L37.6364 200.727 68.7267 200.727Z" fill="#E0B2CB" fill-rule="evenodd" transform="matrix(1.00634 0 -0 1 38.2011 207.909)"/><path d="M80.7273 210.387C80.7273 206.595 77.5975 203.455 73.6527 203.455L33.3642 203.455C29.3979 203.483 26.1945 206.575 26.1818 210.387L26.1818 210.545 80.7273 210.545Z" fill="#E0B2CB" fill-rule="evenodd" transform="matrix(1.00634 0 -0 1 38.2011 207.909)"/><path d="M61.602 134.27 80.5227 102.315C81.3093 100.989 80.8718 99.276 79.5453 98.4895 79.5431 98.4884 79.5409 98.4867 79.5382 98.4856 78.204 97.7013 76.4864 98.1431 75.6965 99.4745L56.5631 131.801C58.3751 132.321 60.0813 133.156 61.602 134.27Z" fill="#E0B2CB" fill-rule="evenodd" transform="matrix(1.00634 0 -0 1 38.2011 207.909)"/><path d="M49.6364 161.455 49.6364 192 55.0909 192 55.0909 161.819C54.5231 161.889 53.9517 161.924 53.3798 161.923 52.1177 161.918 50.8605 161.761 49.6364 161.455Z" fill="#E0B2CB" fill-rule="evenodd" transform="matrix(1.00634 0 -0 1 38.2011 207.909)"/><path d="M53.2065 159.273C60.5869 159.259 66.5591 153.265 66.5455 145.885 66.5318 138.504 60.5378 132.532 53.1571 132.545 45.7865 132.559 39.8186 138.538 39.8182 145.909 39.8329 153.292 45.8224 159.272 53.2065 159.273ZM53.2065 137.317C57.9524 137.323 61.794 141.176 61.7875 145.921 61.7809 150.667 57.9284 154.509 53.1826 154.502 48.4412 154.496 44.6011 150.65 44.6017 145.909 44.611 141.162 48.4601 137.319 53.2065 137.317Z" fill="#E0B2CB" fill-rule="evenodd" transform="matrix(1.00634 0 -0 1 38.2011 207.909)"/><path d="M109.553 105.448C109.408 103.217 108.376 101.138 106.687 99.6742L106.542 99.5482 95.4415 112.239 95.5816 112.361C99.096 115.417 104.419 115.056 107.489 111.555 108.967 109.877 109.71 107.678 109.553 105.448Z" fill="#E0B2CB" fill-rule="evenodd" transform="matrix(1.00634 0 -0 1 38.2011 207.909)"/><path d="M84.1156 113.959C84.1456 114.46 84.378 114.927 84.7604 115.257L87.3524 117.509 109.49 92.7115 106.9 90.4615C106.105 89.772 104.894 89.8489 104.191 90.6333L84.5907 112.589C84.2536 112.965 84.0824 113.458 84.1156 113.959Z" fill="#E0B2CB" fill-rule="evenodd" transform="matrix(1.00634 0 -0 1 38.2011 207.909)"/><path d="M53.1934 151.636C56.3564 151.63 58.9156 149.061 58.9091 145.898 58.9025 142.735 56.3335 140.175 53.1703 140.182 50.0119 140.188 47.455 142.75 47.4545 145.909 47.461 149.073 50.0283 151.636 53.1934 151.636Z" fill="#E0B2CB" fill-rule="evenodd" transform="matrix(1.00634 0 -0 1 38.2011 207.909)"/><path d="M110.839 114.403C110.323 113.875 109.477 113.864 108.948 114.381 108.42 114.898 108.41 115.745 108.926 116.275 108.934 116.282 108.942 116.29 108.95 116.298L115.54 122.885C116.065 123.406 116.912 123.401 117.431 122.876 117.948 122.353 117.947 121.512 117.43 120.991Z" fill="#E0B2CB" fill-rule="evenodd" transform="matrix(1.00634 0 -0 1 38.2011 207.909)"/><path d="M124.673 103.292 115.921 103.091C115.18 103.075 114.564 103.626 114.546 104.324 114.528 105.021 115.114 105.601 115.856 105.618L124.608 105.818 124.641 105.818C125.383 105.826 125.991 105.268 126 104.57 126.009 103.873 125.415 103.3 124.673 103.292Z" fill="#E0B2CB" fill-rule="evenodd" transform="matrix(1.00634 0 -0 1 38.2011 207.909)"/><path d="M99.1146 120.001C98.2778 120.017 97.6162 120.605 97.6369 121.313L97.878 129.658C97.8976 130.354 98.5707 130.91 99.3933 130.909L99.4309 130.909C100.268 130.892 100.929 130.304 100.909 129.596L100.666 121.251C100.643 120.544 99.9502 119.985 99.1146 120.001Z" fill="#E0B2CB" fill-rule="evenodd" transform="matrix(1.00634 0 -0 1 38.2011 207.909)"/></g></g></g></g><path d="M419.5 281.5 309.306 281.5 130.5 256.5 385.62 256.5 419.5 281.5Z" stroke="#FFFFFF" stroke-linecap="round" stroke-linejoin="round" stroke-miterlimit="10" stroke-opacity="0.4" fill="#B13F7D" fill-rule="evenodd" fill-opacity="0.4"/><path d="M376.5 256.237 410.5 281.5 410.5 246.226 376.5 114.5 376.5 256.237Z" stroke="#FFFFFF" stroke-linecap="round" stroke-linejoin="round" stroke-miterlimit="10" stroke-opacity="0.4" fill="#B13F7D" fill-rule="evenodd" fill-opacity="0.4"/><path d="M64 417 493 417 493 432 64 432Z" fill="#E0B2CB" fill-rule="evenodd"/><path d="M486 426.995C486 429.21 430.93 431 363.005 431 295.08 431 240 429.21 240 426.995 240 424.781 295.07 423 363.005 423 430.94 423 486 424.79 486 426.995Z" fill="#B13F7D" fill-rule="evenodd"/><path d="M486 426.995C486 429.21 430.93 431 363.005 431 295.08 431 240 429.21 240 426.995 240 424.781 295.07 423 363.005 423 430.94 423 486 424.79 486 426.995Z" fill="#2E353A" fill-rule="evenodd" fill-opacity="0.301961"/><path d="M354.558 388.5C354.558 388.5 360.539 414.346 357.917 418.599 354.538 424.154 318.5 427.5 318.5 427.5L397.962 427.5C397.962 427.5 407.931 424.678 404.94 416.583 402.618 410.314 391.502 388.5 391.502 388.5Z" stroke="#2E353A" stroke-linecap="round" stroke-linejoin="round" stroke-miterlimit="10" fill="#FFFFFF" fill-rule="evenodd"/><path d="M352.818 388.5C352.818 388.5 359.157 414.423 356.177 418.433 353.197 422.443 318.5 425.5 318.5 425.5L398.319 425.5C398.319 425.5 405.037 422.773 403.173 416.428 401.309 410.083 389.747 388.5 389.747 388.5Z" stroke="#2E353A" stroke-linecap="round" stroke-linejoin="round" stroke-miterlimit="10" fill="#FFFFFF" fill-rule="evenodd"/><path d="M388.902 388 352 388C352 388 355.75 403.193 356.119 412L401 412C397.32 403.531 388.902 388 388.902 388Z" fill="#B13F7D" fill-rule="evenodd"/><path d="M318.5 425.5 398.5 425.5 398.5 427.5 318.5 427.5Z" stroke="#2E353A" stroke-linecap="round" stroke-linejoin="round" stroke-miterlimit="10" fill="#FFFFFF" fill-rule="evenodd"/><path d="M486.003 210.5C490.696 210.5 494.5 210.5 494.5 210.5L494.5 390.5C494.5 390.5 490.696 390.5 486.003 390.5L261.997 390.5 261.997 210.5C257.304 210.5 253.5 210.5 253.5 210.5 253.5 210.5 257.304 210.5 261.997 210.5Z" stroke="#2E353A" stroke-linecap="round" stroke-linejoin="round" stroke-miterlimit="10" fill="#B13F7D" fill-rule="evenodd"/><path d="M480.038 210.5C484.712 210.5 488.5 210.5 488.5 210.5L488.5 390.5C488.5 390.5 484.712 390.5 480.038 390.5L256.962 390.5 256.962 210.5C252.289 210.5 248.5 210.5 248.5 210.5 248.5 210.5 252.289 210.5 256.962 210.5Z" stroke="#2E353A" stroke-linecap="round" stroke-linejoin="round" stroke-miterlimit="10" fill="#2E353A" fill-rule="evenodd"/><path d="M248.5 362.5 488.5 362.5 488.5 362.5 488.5 382.029C488.5 386.707 484.712 390.5 480.038 390.5L256.962 390.5C252.289 390.5 248.5 386.707 248.5 382.029L248.5 362.5 248.5 362.5Z" stroke="#2E353A" stroke-linecap="round" stroke-linejoin="round" stroke-miterlimit="10" fill="#FFFFFF" fill-rule="evenodd"/><path d="M260.5 221.5 476.5 221.5 476.5 349.5 260.5 349.5Z" stroke="#2E353A" stroke-linecap="round" stroke-linejoin="round" stroke-miterlimit="10" fill="#B13F7D" fill-rule="evenodd"/><path d="M372.5 377C372.5 374.515 370.485 372.5 368 372.5 365.515 372.5 363.5 374.515 363.5 377 363.5 379.485 365.515 381.5 368 381.5 368.003 381.5 368.007 381.5 368.01 381.5 370.49 381.5 372.5 379.49 372.5 377.01 372.5 377.007 372.5 377.003 372.5 377Z" stroke="#2E353A" stroke-linecap="round" stroke-linejoin="round" stroke-miterlimit="10" fill="#2E353A" fill-rule="evenodd"/><path d="M261.5 230.5 474.5 230.5 474.5 241.5 261.5 241.5Z" stroke="#2E353A" stroke-linecap="round" stroke-linejoin="round" stroke-miterlimit="10" fill="#2E353A" fill-rule="evenodd"/><path d="M296.638 242.353 294.093 235.5 261.5 235.5 261.5 242.353 261.5 251.439 261.5 343.5 474.5 343.5 474.5 242.353 296.638 242.353Z" stroke="#2E353A" stroke-linecap="round" stroke-linejoin="round" stroke-miterlimit="10" fill="#FFFFFF" fill-rule="evenodd"/><path d="M415.002 427.946C415.002 427.946 416.366 431.218 423.881 432.354 431.396 433.491 482.081 427.6 482.081 427.6 482.081 427.6 485.267 426.809 485.496 425.227 485.725 423.646 477.294 419.01 461.696 417.082 448.122 415.535 434.372 417.083 421.492 421.609 411.817 425.119 415.002 427.946 415.002 427.946Z" stroke="#2E353A" stroke-linecap="round" stroke-linejoin="round" stroke-miterlimit="10" fill="#FFFFFF" fill-rule="evenodd"/><path d="M472.269 422C468.886 422 461.234 422.352 455.005 422.881 448.776 423.41 438.458 427.257 432.766 429.176 427.075 431.094 418 430.585 418 430.585 419.552 431.206 421.176 431.634 422.836 431.858 430.348 432.974 481.015 427.149 481.015 427.149 482.126 426.876 483.151 426.339 484 425.583 480.786 423.292 475.035 422 472.269 422Z" fill="#B13F7D" fill-rule="evenodd"/><path d="M483.5 425.5C483.851 425.789 484.185 426.124 484.5 426.5" stroke="#2E353A" stroke-linecap="round" stroke-linejoin="round" stroke-miterlimit="10" fill="none" fill-rule="evenodd"/><path d="M420.5 431.483C425.759 431.637 430.996 430.761 435.911 428.904 446.336 424.844 457.414 422.676 468.616 422.502 475.128 422.453 479.112 423.335 481.5 424.228" stroke="#2E353A" stroke-linecap="round" stroke-linejoin="round" stroke-miterlimit="10" fill="none" fill-rule="evenodd"/><path d="M412.5 283.5 302.306 283.5 123.5 258.5 378.62 258.5 412.5 283.5Z" stroke="#FFFFFF" stroke-linecap="round" stroke-linejoin="round" stroke-miterlimit="10" stroke-opacity="0.4" fill="#B13F7D" fill-rule="evenodd" fill-opacity="0.4"/><path d="M462.5 295.5 396.5 295.5 396.5 335.5 462.191 335.5" stroke="#2E353A" stroke-linecap="round" stroke-linejoin="round" stroke-miterlimit="10" fill="none" fill-rule="evenodd"/><path d="M396.5 306.5 462.5 306.5" stroke="#2E353A" stroke-linecap="round" stroke-linejoin="round" stroke-miterlimit="10" fill="none" fill-rule="evenodd"/><path d="M396.5 318.5 462.5 318.5" stroke="#2E353A" stroke-linecap="round" stroke-linejoin="round" stroke-miterlimit="10" fill="none" fill-rule="evenodd"/><path d="M396.5 329.5 462.5 329.5" stroke="#2E353A" stroke-linecap="round" stroke-linejoin="round" stroke-miterlimit="10" fill="none" fill-rule="evenodd"/><path d="M394.5 295.5 391.5 295.5" stroke="#2E353A" stroke-linecap="round" stroke-linejoin="round" stroke-miterlimit="10" fill="none" fill-rule="evenodd"/><path d="M394.5 301.5 391.5 301.5" stroke="#2E353A" stroke-linecap="round" stroke-linejoin="round" stroke-miterlimit="10" fill="none" fill-rule="evenodd"/><path d="M394.5 306.5 391.5 306.5" stroke="#2E353A" stroke-linecap="round" stroke-linejoin="round" stroke-miterlimit="10" fill="none" fill-rule="evenodd"/><path d="M394.5 312.5 391.5 312.5" stroke="#2E353A" stroke-linecap="round" stroke-linejoin="round" stroke-miterlimit="10" fill="none" fill-rule="evenodd"/><path d="M394.5 318.5 391.5 318.5" stroke="#2E353A" stroke-linecap="round" stroke-linejoin="round" stroke-miterlimit="10" fill="none" fill-rule="evenodd"/><path d="M394.5 323.5 391.5 323.5" stroke="#2E353A" stroke-linecap="round" stroke-linejoin="round" stroke-miterlimit="10" fill="none" fill-rule="evenodd"/><path d="M394.5 329.5 391.5 329.5" stroke="#2E353A" stroke-linecap="round" stroke-linejoin="round" stroke-miterlimit="10" fill="none" fill-rule="evenodd"/><path d="M394.5 335.5 391.5 335.5" stroke="#2E353A" stroke-linecap="round" stroke-linejoin="round" stroke-miterlimit="10" fill="none" fill-rule="evenodd"/><path d="M398.5 311.5 401.5 311.5 401.5 335.5 398.5 335.5Z" stroke="#2E353A" stroke-linecap="round" stroke-linejoin="round" stroke-miterlimit="10" fill="#2E353A" fill-rule="evenodd"/><path d="M403.5 299.5 406.5 299.5 406.5 335.5 403.5 335.5Z" stroke="#2E353A" stroke-linecap="round" stroke-linejoin="round" stroke-miterlimit="10" fill="#B13F7D" fill-rule="evenodd"/><path d="M409.5 311.5 412.5 311.5 412.5 335.5 409.5 335.5Z" stroke="#2E353A" stroke-linecap="round" stroke-linejoin="round" stroke-miterlimit="10" fill="#FFFFFF" fill-rule="evenodd"/><path d="M421.5 303.5 424.5 303.5 424.5 335.5 421.5 335.5Z" stroke="#2E353A" stroke-linecap="round" stroke-linejoin="round" stroke-miterlimit="10" fill="#2E353A" fill-rule="evenodd"/><path d="M426.5 308.5 430.5 308.5 430.5 335.5 426.5 335.5Z" stroke="#2E353A" stroke-linecap="round" stroke-linejoin="round" stroke-miterlimit="10" fill="#B13F7D" fill-rule="evenodd"/><path d="M432.5 321.5 435.5 321.5 435.5 335.5 432.5 335.5Z" stroke="#2E353A" stroke-linecap="round" stroke-linejoin="round" stroke-miterlimit="10" fill="#FFFFFF" fill-rule="evenodd"/><path d="M444.5 311.5 447.5 311.5 447.5 335.5 444.5 335.5Z" stroke="#2E353A" stroke-linecap="round" stroke-linejoin="round" stroke-miterlimit="10" fill="#2E353A" fill-rule="evenodd"/><path d="M449.5 299.5 453.5 299.5 453.5 335.5 449.5 335.5Z" stroke="#2E353A" stroke-linecap="round" stroke-linejoin="round" stroke-miterlimit="10" fill="#B13F7D" fill-rule="evenodd"/><path d="M455.5 311.5 458.5 311.5 458.5 335.5 455.5 335.5Z" stroke="#2E353A" stroke-linecap="round" stroke-linejoin="round" stroke-miterlimit="10" fill="#FFFFFF" fill-rule="evenodd"/><path d="M377.5 259.237 411.5 284.5 411.5 249.226 377.5 117.5 377.5 259.237Z" stroke="#FFFFFF" stroke-linecap="round" stroke-linejoin="round" stroke-miterlimit="10" stroke-opacity="0.4" fill="#B13F7D" fill-rule="evenodd" fill-opacity="0.4"/><path d="M122.5 115.5 376.5 115.5 376.5 243.5 122.5 243.5Z" stroke="#2E353A" stroke-linecap="round" stroke-linejoin="round" stroke-miterlimit="10" fill-rule="evenodd"/><path d="M132 121 180 121" stroke="#FFFFFF" stroke-width="2" stroke-linecap="round" stroke-linejoin="round" stroke-miterlimit="10" fill="none" fill-rule="evenodd"/><path d="M370 120.49C369.994 118.557 368.422 116.994 366.49 117 364.556 117.006 362.994 118.578 363 120.511 363.006 122.439 364.571 124 366.5 124 368.433 124 370 122.433 370 120.5 370 120.497 370 120.493 370 120.49Z" fill="#FFFFFF" fill-rule="evenodd"/><path d="M122.5 129.5 376.5 129.5 376.5 257.5 122.5 257.5Z" stroke="#2E353A" stroke-linecap="round" stroke-linejoin="round" stroke-miterlimit="10" fill="#FFFFFF" fill-rule="evenodd"/><path d="M364.5 142.5 140.5 142.5 140.5 245.5 363.832 245.5" stroke="#2E353A" stroke-linecap="round" stroke-linejoin="round" stroke-miterlimit="10" fill="none" fill-rule="evenodd"/><path d="M140.5 171.5 365.5 171.5" stroke="#2E353A" stroke-linecap="round" stroke-linejoin="round" stroke-miterlimit="10" fill="none" fill-rule="evenodd"/><path d="M140.5 200.5 365.5 200.5" stroke="#2E353A" stroke-linecap="round" stroke-linejoin="round" stroke-miterlimit="10" fill="none" fill-rule="evenodd"/><path d="M140.5 230.5 365.5 230.5" stroke="#2E353A" stroke-linecap="round" stroke-linejoin="round" stroke-miterlimit="10" fill="none" fill-rule="evenodd"/><path d="M136.5 143.5 130.5 143.5" stroke="#2E353A" stroke-linecap="round" stroke-linejoin="round" stroke-miterlimit="10" fill="none" fill-rule="evenodd"/><path d="M136.5 157.5 130.5 157.5" stroke="#2E353A" stroke-linecap="round" stroke-linejoin="round" stroke-miterlimit="10" fill="none" fill-rule="evenodd"/><path d="M136.5 172.5 130.5 172.5" stroke="#2E353A" stroke-linecap="round" stroke-linejoin="round" stroke-miterlimit="10" fill="none" fill-rule="evenodd"/><path d="M136.5 186.5 130.5 186.5" stroke="#2E353A" stroke-linecap="round" stroke-linejoin="round" stroke-miterlimit="10" fill="none" fill-rule="evenodd"/><path d="M136.5 201.5 130.5 201.5" stroke="#2E353A" stroke-linecap="round" stroke-linejoin="round" stroke-miterlimit="10" fill="none" fill-rule="evenodd"/><path d="M136.5 215.5 130.5 215.5" stroke="#2E353A" stroke-linecap="round" stroke-linejoin="round" stroke-miterlimit="10" fill="none" fill-rule="evenodd"/><path d="M136.5 229.5 130.5 229.5" stroke="#2E353A" stroke-linecap="round" stroke-linejoin="round" stroke-miterlimit="10" fill="none" fill-rule="evenodd"/><path d="M136.5 244.5 130.5 244.5" stroke="#2E353A" stroke-linecap="round" stroke-linejoin="round" stroke-miterlimit="10" fill="none" fill-rule="evenodd"/><path d="M141.5 172.064C141.5 172.064 161.16 172.932 165.16 170.248 169.16 167.564 174.5 162.176 177.83 162.842 181.44 163.784 185.002 164.909 188.5 166.212 188.5 166.212 196.5 161.5 198.5 161.5 200.5 161.5 207.16 164.86 212.5 164.86L227.83 164.86 233.83 169.572 245.16 166.212 257.83 171.59 265.83 170.248 277.16 176.302 282.5 176.302 293.16 181.004 307.16 181.004 315.16 185.716 327.83 186.392 337.83 196.482 345.83 195.13 354.5 198.5 362.5 197.824" stroke="#B13F7D" stroke-width="3" stroke-linecap="round" stroke-linejoin="round" stroke-miterlimit="10" fill="none" fill-rule="evenodd"/><path d="M141.5 175.732 166.132 175.732 180.78 177.693 192.761 178.35 203.405 185.539 218.721 180.959 237.353 187.5 257.991 184.234 265.31 187.5 281.954 169.191 298.598 169.191 308.583 158.737 319.227 163.307 325.886 157.423 334.543 162.003 339.865 155.461 343.19 156.118 351.846 153.5 355.84 156.118 362.5 154.814" stroke="#2E353A" stroke-width="3" stroke-linecap="round" stroke-linejoin="round" stroke-miterlimit="10" fill="none" fill-rule="evenodd"/><path d="M141.5 241.5 166.287 241.5 185.353 230 199.338 236.77 209.501 236.77 214.592 238.8 226.032 232.71 241.285 222.56 246.366 230 255.899 228.65 260.981 230 273.698 230.68 287.674 218.5 294.671 227.29 303.566 226.62 308.647 230 316.274 227.97 326.446 232.03 340.431 230 348.058 231.35 352.5 230" stroke="#B13F7D" stroke-width="3" stroke-linecap="round" stroke-linejoin="round" stroke-miterlimit="10" fill="none" fill-rule="evenodd"/><path d="M301.5 266.5 360.5 291.864 360.5 336.647 301.5 401.5 301.5 266.5Z" stroke="#FFFFFF" stroke-linecap="round" stroke-linejoin="round" stroke-miterlimit="10" stroke-opacity="0.4" fill="#B13F7D" fill-rule="evenodd" fill-opacity="0.4"/><path d="M170.5 266.5 301.5 266.5 301.5 394.5 170.5 394.5Z" stroke="#2E353A" stroke-linecap="round" stroke-linejoin="round" stroke-miterlimit="10" fill-rule="evenodd"/><path d="M170.5 280.5 301.5 280.5 301.5 401.5 170.5 401.5Z" stroke="#2E353A" stroke-linecap="round" stroke-linejoin="round" stroke-miterlimit="10" fill="#FFFFFF" fill-rule="evenodd"/><path d="M296 273.5C296 271.567 294.433 270 292.5 270 290.567 270 289 271.567 289 273.5 289 275.433 290.567 277 292.5 277 294.433 277 296 275.433 296 273.5Z" fill="#FFFFFF" fill-rule="evenodd"/><path d="M281 273.511C281.005 271.578 279.666 270.006 278.009 270 276.352 269.994 275.005 271.557 275 273.49 274.995 275.423 276.334 276.994 277.991 277 277.994 277 277.997 277 278 277 279.653 277 280.995 275.439 281 273.511Z" fill="#FFFFFF" fill-rule="evenodd"/><path d="M170.5 280.5 301.5 280.5 301.5 295.5 170.5 295.5Z" stroke="#2E353A" stroke-linecap="round" stroke-linejoin="round" stroke-miterlimit="10" stroke-opacity="0.729412" fill="#BFBFBF" fill-rule="evenodd"/><path d="M458.543 255.683C458.543 255.683 455.802 261.566 453.763 261.542 451.898 261.522 451.802 257.455 449.664 257.431 447.526 257.406 444.165 266.047 442.096 266.028 440.028 266.009 440.059 261.664 438.278 261.644 436.496 261.623 434.924 266.166 433.087 266.142 431.568 266.127 431.831 261.945 430.945 260.475 430.796 260.174 430.527 259.991 430.201 259.969 428.383 259.949 424.095 268.831 422.524 268.814 422.082 268.815 421.676 268.684 421.344 268.433 420.968 268.069 420.556 267.753 420.113 267.488 419.929 267.41 419.728 267.371 419.516 267.371 418.178 267.356 415.699 271.904 414.477 271.886 413.255 271.869 412.724 270.698 411.418 270.681 410.113 270.665 408.767 273 406.814 272.978L406.27 275.331 453.867 275.863" stroke="#263238" stroke-miterlimit="8" fill="#BFBFBF" fill-rule="evenodd"/><path d="M456.854 265.023C456.854 265.023 456.158 267.837 454.98 267.863 454.001 267.881 453.706 267.159 452.848 266.764 452.429 266.572 451.97 266.481 451.506 266.497 450.562 266.513 449.908 267.568 449.248 268.717 448.445 270.139 447.677 271.727 446.435 271.768 445.571 271.787 444.863 271.267 444.176 270.629 443.079 269.613 442.034 268.293 440.476 268.322 439.722 268.339 438.964 268.898 438.249 269.631 436.543 271.412 435.001 274.379 433.952 274.398 432.461 274.432 431.11 271.195 429.788 271.222 428.467 271.248 428.069 273.474 426.996 273.496 425.924 273.518 425.901 272.118 424.012 272.155 422.123 272.191 421.862 274.994 419.195 275.049 416.529 275.103 416.31 272.854 413.736 272.906 411.163 272.957 410.826 274.859 409.006 274.894 407.187 274.929 407.041 273.466 405.731 273.521 404.42 273.576 403.404 275.259 403.342 275.366L403.315 277.119 456.699 276.051" stroke="#263238" stroke-miterlimit="8" fill="#B13F7D" fill-rule="evenodd"/><path d="M394.5 277.5 455.736 277.5" stroke="#7F7F7F" stroke-miterlimit="8" fill="none" fill-rule="evenodd"/><path d="M401.5 245.5 401.5 277.13" stroke="#7F7F7F" stroke-miterlimit="8" fill="none" fill-rule="evenodd"/><g clip-path="url(#clip5)"><g clip-path="url(#clip6)"><g clip-path="url(#clip7)"><g clip-path="url(#clip8)"><path d="M20.8642 52.716C20.8642 51.7615 21.6933 50.9877 22.7161 50.9877 23.7388 50.9877 24.5679 51.7615 24.5679 52.716 24.5679 53.6706 23.7388 54.4444 22.7161 54.4444 21.6933 54.4444 20.8642 53.6706 20.8642 52.716Z" stroke="#263238" stroke-width="0.246914" stroke-miterlimit="8" fill="#B13F7D" fill-rule="evenodd" transform="matrix(1 0 -0 1.00399 169.395 254.42)"/><path d="M25.3086 62.3457C25.3086 61.3911 26.0825 60.6173 27.037 60.6173 27.9916 60.6173 28.7654 61.3911 28.7654 62.3457 28.7654 63.3002 27.9916 64.0741 27.037 64.0741 26.0825 64.0741 25.3086 63.3002 25.3086 62.3457Z" stroke="#263238" stroke-width="0.246914" stroke-miterlimit="8" fill="#B13F7D" fill-rule="evenodd" transform="matrix(1 0 -0 1.00399 169.395 254.42)"/><path d="M44.321 57.4074C44.321 56.4528 45.1501 55.679 46.1728 55.679 47.1956 55.679 48.0247 56.4528 48.0247 57.4074 48.0247 58.362 47.1956 59.1358 46.1728 59.1358 45.1501 59.1358 44.321 58.362 44.321 57.4074Z" stroke="#263238" stroke-width="0.246914" stroke-miterlimit="8" fill="#B13F7D" fill-rule="evenodd" transform="matrix(1 0 -0 1.00399 169.395 254.42)"/><path d="M13.2099 76.7901C13.2099 75.9037 14.039 75.1852 15.0618 75.1852 16.0845 75.1852 16.9136 75.9037 16.9136 76.7901 16.9136 77.6765 16.0845 78.3951 15.0618 78.3951 14.039 78.3951 13.2099 77.6765 13.2099 76.7901Z" stroke="#263238" stroke-width="0.246914" stroke-miterlimit="8" fill="#B13F7D" fill-rule="evenodd" transform="matrix(1 0 -0 1.00399 169.395 254.42)"/><path d="M26.0494 72.0988C26.0494 71.2123 26.8785 70.4938 27.9012 70.4938 28.924 70.4938 29.7531 71.2123 29.7531 72.0988 29.7531 72.9852 28.924 73.7037 27.9012 73.7037 26.8785 73.7037 26.0494 72.9852 26.0494 72.0988Z" stroke="#263238" stroke-width="0.246914" stroke-miterlimit="8" fill="#B13F7D" fill-rule="evenodd" transform="matrix(1 0 -0 1.00399 169.395 254.42)"/><path d="M38.642 80.8642C38.642 79.9096 39.4711 79.1358 40.4938 79.1358 41.5165 79.1358 42.3457 79.9096 42.3457 80.8642 42.3457 81.8188 41.5165 82.5926 40.4938 82.5926 39.4711 82.5926 38.642 81.8188 38.642 80.8642Z" stroke="#263238" stroke-width="0.246914" stroke-miterlimit="8" fill="#B13F7D" fill-rule="evenodd" transform="matrix(1 0 -0 1.00399 169.395 254.42)"/><path d="M20.6173 90.8642C20.6173 89.9778 21.4464 89.2593 22.4692 89.2593 23.4919 89.2593 24.321 89.9778 24.321 90.8642 24.321 91.7506 23.4919 92.4691 22.4692 92.4691 21.4464 92.4691 20.6173 91.7506 20.6173 90.8642Z" stroke="#263238" stroke-width="0.246914" stroke-miterlimit="8" fill="#B13F7D" fill-rule="evenodd" transform="matrix(1 0 -0 1.00399 169.395 254.42)"/><path d="M55.679 82.4691C55.679 81.5827 56.5081 80.8642 57.5309 80.8642 58.5536 80.8642 59.3827 81.5827 59.3827 82.4691 59.3827 83.3556 58.5536 84.0741 57.5309 84.0741 56.5081 84.0741 55.679 83.3556 55.679 82.4691Z" stroke="#263238" stroke-width="0.246914" stroke-miterlimit="8" fill="#B13F7D" fill-rule="evenodd" transform="matrix(1 0 -0 1.00399 169.395 254.42)"/><path d="M42.3457 96.0494C42.3457 95.163 43.1748 94.4444 44.1975 94.4444 45.2202 94.4444 46.0494 95.163 46.0494 96.0494 46.0494 96.9358 45.2202 97.6543 44.1975 97.6543 43.1748 97.6543 42.3457 96.9358 42.3457 96.0494Z" stroke="#263238" stroke-width="0.246914" stroke-miterlimit="8" fill="#B13F7D" fill-rule="evenodd" transform="matrix(1 0 -0 1.00399 169.395 254.42)"/><path d="M42.3457 106.296C42.3457 105.342 43.1748 104.568 44.1975 104.568 45.2202 104.568 46.0494 105.342 46.0494 106.296 46.0494 107.251 45.2202 108.025 44.1975 108.025 43.1748 108.025 42.3457 107.251 42.3457 106.296Z" stroke="#263238" stroke-width="0.246914" stroke-miterlimit="8" fill="#B13F7D" fill-rule="evenodd" transform="matrix(1 0 -0 1.00399 169.395 254.42)"/><path d="M23.2099 54.321 26.1368 61.1447" stroke="#263238" stroke-width="0.493827" stroke-miterlimit="8" fill="none" fill-rule="evenodd" transform="matrix(1 0 -0 1.00399 169.395 254.42)"/><path d="M0 0 15.4608 4.96126" stroke="#263238" stroke-width="0.493827" stroke-miterlimit="8" fill="none" fill-rule="evenodd" transform="matrix(-1 -1.50996e-07 -1.51599e-07 1.00399 213.498 311.933)"/><path d="M0 0 9.80464 12.3338" stroke="#263238" stroke-width="0.493827" stroke-miterlimit="8" fill="none" fill-rule="evenodd" transform="matrix(-1 -1.50996e-07 -1.51599e-07 1.00399 195.002 318.13)"/><path d="M0 0 6.64202 21.2445" stroke="#263238" stroke-width="0.493827" stroke-miterlimit="8" fill="none" fill-rule="evenodd" transform="matrix(-1 -1.50996e-07 -1.51599e-07 1.00399 190.852 308.462)"/><path d="M44.6696 56.1089 24.4444 52.5926" stroke="#263238" stroke-width="0.493827" stroke-miterlimit="8" fill="none" fill-rule="evenodd" transform="matrix(1 0 -0 1.00399 169.395 254.42)"/><path d="M21.0562 89.539 14.8148 78.2716" stroke="#263238" stroke-width="0.493827" stroke-miterlimit="8" fill="none" fill-rule="evenodd" transform="matrix(1 0 -0 1.00399 169.395 254.42)"/><path d="M0 0 15.3689 7.64706" stroke="#263238" stroke-width="0.493827" stroke-miterlimit="8" fill="none" fill-rule="evenodd" transform="matrix(1 0 0 -1.00399 193.099 344.4)"/><path d="M27.578 70.5798 26.9136 63.9506" stroke="#263238" stroke-width="0.493827" stroke-miterlimit="8" fill="none" fill-rule="evenodd" transform="matrix(1 0 -0 1.00399 169.395 254.42)"/><path d="M42.2222 80.7407 55.5146 82.3946" stroke="#263238" stroke-width="0.493827" stroke-miterlimit="8" fill="none" fill-rule="evenodd" transform="matrix(1 0 -0 1.00399 169.395 254.42)"/><path d="M29.1358 73.0864 39.1069 79.5432" stroke="#263238" stroke-width="0.493827" stroke-miterlimit="8" fill="none" fill-rule="evenodd" transform="matrix(1 0 -0 1.00399 169.395 254.42)"/><path d="M40.4938 82.4691 44.044 94.383" stroke="#263238" stroke-width="0.493827" stroke-miterlimit="8" fill="none" fill-rule="evenodd" transform="matrix(1 0 -0 1.00399 169.395 254.42)"/><path d="M43.9506 97.5309 44.0684 104.483" stroke="#263238" stroke-width="0.493827" stroke-miterlimit="8" fill="none" fill-rule="evenodd" transform="matrix(1 0 -0 1.00399 169.395 254.42)"/><path d="M43.8272 70.3704C43.8272 69.484 44.6563 68.7654 45.679 68.7654 46.7017 68.7654 47.5309 69.484 47.5309 70.3704 47.5309 71.2568 46.7017 71.9753 45.679 71.9753 44.6563 71.9753 43.8272 71.2568 43.8272 70.3704Z" stroke="#263238" stroke-width="0.246914" stroke-miterlimit="8" fill="#B13F7D" fill-rule="evenodd" transform="matrix(1 0 -0 1.00399 169.395 254.42)"/><path d="M0 0 3.45637 7.25815" stroke="#263238" stroke-width="0.493827" stroke-miterlimit="8" fill="none" fill-rule="evenodd" transform="matrix(-1 -1.50996e-07 -1.51599e-07 1.00399 214.086 326.559)"/><path d="M51.4815 66.1728C51.4815 65.2864 52.3106 64.5679 53.3333 64.5679 54.356 64.5679 55.1852 65.2864 55.1852 66.1728 55.1852 67.0593 54.356 67.7778 53.3333 67.7778 52.3106 67.7778 51.4815 67.0593 51.4815 66.1728Z" stroke="#263238" stroke-width="0.246914" stroke-miterlimit="8" fill="#B13F7D" fill-rule="evenodd" transform="matrix(1 0 -0 1.00399 169.395 254.42)"/><path d="M54.5679 67.1605 57.4817 80.6153" stroke="#263238" stroke-width="0.493827" stroke-miterlimit="8" fill="none" fill-rule="evenodd" transform="matrix(1 0 -0 1.00399 169.395 254.42)"/><path d="M0 0 4.38044 3.04402" stroke="#263238" stroke-width="0.493827" stroke-miterlimit="8" fill="none" fill-rule="evenodd" transform="matrix(-1 -1.50996e-07 -1.51599e-07 1.00399 220.689 320.857)"/><path d="M51.9254 65.0457 47.4074 58.5185" stroke="#263238" stroke-width="0.493827" stroke-miterlimit="8" fill="none" fill-rule="evenodd" transform="matrix(1 0 -0 1.00399 169.395 254.42)"/><path d="M0 0 14.1315 1.61522" stroke="#263238" stroke-width="0.493827" stroke-miterlimit="8" fill="none" fill-rule="evenodd" transform="matrix(-1 -1.50996e-07 -1.51599e-07 1.00399 213.156 325.071)"/><path d="M67.7778 93.5802C67.7778 92.6938 68.6069 91.9753 69.6296 91.9753 70.6523 91.9753 71.4815 92.6938 71.4815 93.5802 71.4815 94.4667 70.6523 95.1852 69.6296 95.1852 68.6069 95.1852 67.7778 94.4667 67.7778 93.5802Z" stroke="#263238" stroke-width="0.246914" stroke-miterlimit="8" fill="#B13F7D" fill-rule="evenodd" transform="matrix(1 0 -0 1.00399 169.395 254.42)"/><path d="M58.7654 83.4568 68.2919 92.2052" stroke="#263238" stroke-width="0.493827" stroke-miterlimit="8" fill="none" fill-rule="evenodd" transform="matrix(1 0 -0 1.00399 169.395 254.42)"/><path d="M24.321 102.099C24.321 101.144 25.1501 100.37 26.1728 100.37 27.1956 100.37 28.0247 101.144 28.0247 102.099 28.0247 103.053 27.1956 103.827 26.1728 103.827 25.1501 103.827 24.321 103.053 24.321 102.099Z" stroke="#263238" stroke-width="0.246914" stroke-miterlimit="8" fill="#B13F7D" fill-rule="evenodd" transform="matrix(1 0 -0 1.00399 169.395 254.42)"/><path d="M0 0 12.9901 18.43" stroke="#263238" stroke-width="0.493827" stroke-miterlimit="8" fill="none" fill-rule="evenodd" transform="matrix(1 0 0 -1.00399 195.568 355.226)"/><path d="M11.9753 51.4815C11.9753 50.5269 12.8044 49.7531 13.8272 49.7531 14.8499 49.7531 15.679 50.5269 15.679 51.4815 15.679 52.4361 14.8499 53.2099 13.8272 53.2099 12.8044 53.2099 11.9753 52.4361 11.9753 51.4815Z" stroke="#263238" stroke-width="0.246914" stroke-miterlimit="8" fill="#B13F7D" fill-rule="evenodd" transform="matrix(1 0 -0 1.00399 169.395 254.42)"/></g></g></g></g><path d="M180.5 368.5 289.92 368.5" stroke="#263238" stroke-miterlimit="8" fill="none" fill-rule="evenodd"/><path d="M246 306 246 354.36" stroke="#BFBFBF" stroke-width="2" stroke-miterlimit="8" fill="none" fill-rule="evenodd"/><rect x="248" y="306" width="40" height="48" fill="#D3D3D3"/><path d="M250.5 312.5 283.34 312.5" stroke="#7F7F7F" stroke-miterlimit="8" fill="none" fill-rule="evenodd"/><path d="M250.5 320.5 283.34 320.5" stroke="#7F7F7F" stroke-miterlimit="8" fill="none" fill-rule="evenodd"/><path d="M250.5 316.5 283.34 316.5" stroke="#7F7F7F" stroke-miterlimit="8" fill="none" fill-rule="evenodd"/><path d="M250.5 324.5 283.34 324.5" stroke="#7F7F7F" stroke-miterlimit="8" fill="none" fill-rule="evenodd"/><path d="M250.5 328.5 283.34 328.5" stroke="#7F7F7F" stroke-miterlimit="8" fill="none" fill-rule="evenodd"/><path d="M250.5 332.5 283.34 332.5" stroke="#7F7F7F" stroke-miterlimit="8" fill="none" fill-rule="evenodd"/><path d="M250.5 340.5 283.34 340.5" stroke="#7F7F7F" stroke-miterlimit="8" fill="none" fill-rule="evenodd"/><path d="M250.5 344.5 283.34 344.5" stroke="#7F7F7F" stroke-miterlimit="8" fill="none" fill-rule="evenodd"/><path d="M250.5 348.5 283.34 348.5" stroke="#7F7F7F" stroke-miterlimit="8" fill="none" fill-rule="evenodd"/><path d="M250.5 352.5 283.34 352.5" stroke="#7F7F7F" stroke-miterlimit="8" fill="none" fill-rule="evenodd"/><path d="M250.5 336.5 264.299 336.5" stroke="#7F7F7F" stroke-miterlimit="8" fill="none" fill-rule="evenodd"/><path d="M250.5 308.5 264.299 308.5" stroke="#7F7F7F" stroke-miterlimit="8" fill="none" fill-rule="evenodd"/><g clip-path="url(#clip9)"><g clip-path="url(#clip10)"><g clip-path="url(#clip11)"><g clip-path="url(#clip12)"><path d="M91.1774 19.0574C92.8857 19.0574 94.2705 19.0574 94.2705 19.0574L94.2705 74.7049C94.2705 74.7049 92.8857 74.7049 91.1774 74.7049L43.7489 74.7049 43.7489 19.0574C42.0406 19.0574 40.6557 19.0574 40.6557 19.0574 40.6557 19.0574 42.0406 19.0574 43.7489 19.0574Z" fill="#F9EDF4" fill-rule="evenodd" transform="matrix(1.01198 0 -0 1 67.1429 352.279)"/><path d="M91.0943 19.0574 87.918 19.0574C89.6723 19.0574 91.0943 20.4415 91.0943 22.1489L91.0943 71.6133C91.0943 73.3208 89.6723 74.7049 87.918 74.7049L91.0943 74.7049C92.8486 74.7049 94.2705 73.3208 94.2705 71.6133L94.2705 22.1489C94.2705 20.4415 92.8486 19.0574 91.0943 19.0574Z" fill="#F9EDF4" fill-rule="evenodd" transform="matrix(1.01198 0 -0 1 67.1429 352.279)"/><path d="M94.2705 71.4016 98.2273 71.4016C98.8465 71.4037 99.4361 71.1336 99.8429 70.6617 100.25 70.1901 100.434 69.5627 100.348 68.9427L94.2705 26.1721Z" fill="#E0B2CB" fill-rule="evenodd" transform="matrix(1.01198 0 -0 1 67.1429 352.279)"/><path d="M100.094 68.9427 94.0164 26.1721 94.0164 47.6345 97.044 68.9427C97.1301 69.5627 96.9459 70.1901 96.5388 70.6617 96.1318 71.1336 95.5425 71.4037 94.9233 71.4016L97.9732 71.4016C98.5925 71.4037 99.182 71.1336 99.5888 70.6617 99.9958 70.1901 100.18 69.5627 100.094 68.9427Z" fill="#B13D7D" fill-rule="evenodd" transform="matrix(1.01198 0 -0 1 67.1429 352.279)"/><path d="M89.9508 25.2193 89.9508 31.5082 44.7213 31.5082 44.7213 25.2193C44.7246 24.0629 45.6432 23.1264 46.7772 23.1229L87.8949 23.1229C89.029 23.1264 89.9475 24.0629 89.9508 25.2193Z" fill="#B13D7D" fill-rule="evenodd" transform="matrix(1.01198 0 -0 1 67.1429 352.279)"/><path d="M87.918 23.1229 84.8689 23.1229C85.9902 23.1264 86.8983 24.0629 86.9016 25.2193L86.9016 31.5082 89.9508 31.5082 89.9508 25.2193C89.9475 24.0629 89.0394 23.1264 87.918 23.1229Z" fill="#E0B2CB" fill-rule="evenodd" transform="matrix(1.01198 0 -0 1 67.1429 352.279)"/><path d="M89.9508 31.5082 89.9508 62.3745C89.9506 62.9198 89.7323 63.4425 89.3443 63.8272L83.3618 69.7815C82.9751 70.1677 82.4498 70.385 81.902 70.3852L46.7772 70.3852C45.6432 70.3819 44.7246 69.4677 44.7213 68.339L44.7213 31.5082Z" fill="#F9EDF4" fill-rule="evenodd" transform="matrix(1.01198 0 -0 1 67.1429 352.279)"/><path d="M86.9242 31.5082 86.9242 62.3745C86.924 62.9198 86.7098 63.4425 86.3289 63.8272L80.4572 69.7815C80.0776 70.1677 79.5623 70.385 79.0246 70.3852L82.0512 70.3852C82.5888 70.385 83.1044 70.1677 83.4838 69.7815L89.3557 63.8272C89.7364 63.4425 89.9506 62.9198 89.9508 62.3745L89.9508 31.5082Z" fill="#E0B2CB" fill-rule="evenodd" transform="matrix(1.01198 0 -0 1 67.1429 352.279)"/><path d="M89.9508 63.2705C89.8461 63.4997 89.7013 63.708 89.5232 63.8859L83.4515 69.9576C83.2736 70.1357 83.0653 70.2806 82.8361 70.3852L82.8361 65.3569C82.8396 64.2061 83.7717 63.2741 84.9225 63.2705Z" fill="#E0B2CB" fill-rule="evenodd" transform="matrix(1.01198 0 -0 1 67.1429 352.279)"/><path d="M46.7541 74.7049C45.0702 74.7049 43.7049 73.3208 43.7049 71.6133L43.7049 22.1489C43.7049 20.4415 45.0702 19.0574 46.7541 19.0574L43.7049 19.0574C42.021 19.0574 40.6557 20.4415 40.6557 22.1489L40.6557 71.6133C40.6557 73.3208 42.021 74.7049 43.7049 74.7049Z" fill="#FFFFFF" fill-rule="evenodd" transform="matrix(1.01198 0 -0 1 67.1429 352.279)"/><path d="M39.6393 63.2705 41.6721 63.2705 41.6721 71.4016 39.6393 71.4016Z" fill="#FFFFFF" fill-rule="evenodd" transform="matrix(1.01198 0 -0 1 67.1429 352.279)"/><path d="M40.6583 68.3525C40.0982 68.3552 39.6421 67.9025 39.6393 67.3411 39.6365 66.7798 40.0881 66.3225 40.6481 66.3197L40.6583 66.3197C41.2183 66.3197 41.6721 66.7748 41.6721 67.3361 41.6721 67.8974 41.2183 68.3525 40.6583 68.3525Z" fill="#B13D7D" fill-rule="evenodd" transform="matrix(1.01198 0 -0 1 67.1429 352.279)"/><path d="M95.2112 26.2473 95.2112 22.2082C95.2112 19.9348 93.3679 18.0918 91.0945 18.0918L84.2049 18.0918C83.0193 15.5787 80.4897 13.9754 77.7112 13.9754 74.9323 13.9754 72.403 15.5787 71.2174 18.0918L64.6518 18.0918C63.4661 15.5787 60.9369 13.9754 58.158 13.9754 55.3795 13.9754 52.8502 15.5787 51.6645 18.0918L43.7557 18.0918C41.4823 18.0918 39.6393 19.9348 39.6393 22.2082L39.6393 63.3721C39.6393 63.9405 40.1 64.4012 40.6684 64.4012 41.2369 64.4012 41.6975 63.9405 41.6975 63.3721L41.6975 22.2082C41.6975 21.0715 42.6192 20.15 43.7557 20.15L51.0418 20.15C50.9899 20.4906 50.9625 20.8346 50.9594 21.1791 50.9625 21.5237 50.9899 21.8676 51.0418 22.2082L46.843 22.2082C45.138 22.2082 43.7557 23.5904 43.7557 25.2955L43.7557 68.5176C43.7557 70.2226 45.138 71.6049 46.843 71.6049L82.0097 71.6049C82.8289 71.6072 83.6149 71.2814 84.1924 70.7003L90.1899 64.7028C90.7708 64.125 91.0965 63.3391 91.0945 62.5201L91.0945 25.2955C91.0945 23.5904 89.7125 22.2082 88.0072 22.2082L72.6737 22.2082C72.5349 21.5291 72.5349 20.8291 72.6737 20.15L91.0945 20.15C92.2314 20.15 93.153 21.0715 93.153 22.2082L93.153 71.6049C93.153 72.7418 92.2314 73.6631 91.0945 73.6631L43.7557 73.6631C42.6192 73.6631 41.6975 72.7418 41.6975 71.6049 41.6975 71.0365 41.2369 70.5758 40.6684 70.5758 40.1 70.5758 39.6393 71.0365 39.6393 71.6049 39.6393 73.8783 41.4823 75.7213 43.7557 75.7213L91.0945 75.7213C92.966 75.7142 94.597 74.446 95.0648 72.634L98.1882 72.634C99.1133 72.636 99.9938 72.2361 100.601 71.5383 101.209 70.8403 101.483 69.9134 101.354 68.9971ZM58.1634 16.0336C59.7827 16.0346 61.3073 16.7969 62.2798 18.0918L54.0737 18.0918C55.0372 16.8008 56.5521 16.0383 58.1634 16.0336ZM45.8139 68.5176 45.8139 32.4992 89.0363 32.4992 89.0363 62.343 84.9199 62.343C83.2149 62.343 81.8326 63.7253 81.8326 65.4303L81.8326 69.5467 46.843 69.5467C46.2746 69.5467 45.8139 69.086 45.8139 68.5176ZM83.8908 68.0915 83.8908 65.4303C83.8908 64.8619 84.3515 64.4012 84.9199 64.4012L87.5813 64.4012ZM88.0072 24.2664C88.5756 24.2664 89.0363 24.7271 89.0363 25.2955L89.0363 30.441 45.8139 30.441 45.8139 25.2955C45.8139 24.7271 46.2746 24.2664 46.843 24.2664L51.6645 24.2664C52.8555 26.7771 55.3843 28.379 58.1634 28.3828 58.7315 28.3828 59.1925 27.9221 59.1925 27.3537 59.1925 26.7853 58.7315 26.3246 58.1634 26.3246 56.5521 26.3198 55.0372 25.5575 54.0737 24.2664L71.2174 24.2664C72.4084 26.7771 74.9374 28.379 77.7162 28.3828 78.2847 28.3828 78.7453 27.9221 78.7453 27.3537 78.7453 26.7853 78.2847 26.3246 77.7162 26.3246 76.1052 26.3198 74.5903 25.5575 73.6265 24.2664ZM70.5949 22.2082 53.1205 22.2082C52.982 21.5291 52.982 20.8291 53.1205 20.15L70.5949 20.15C70.5428 20.4906 70.5153 20.8346 70.5126 21.1791 70.5153 21.5237 70.5428 21.8676 70.5949 22.2082ZM77.7162 16.0336C79.3356 16.0346 80.8602 16.7969 81.8326 18.0918L73.6265 18.0918C74.5903 16.8008 76.1052 16.0383 77.7162 16.0336ZM99.0526 70.1817C98.8369 70.434 98.5205 70.5784 98.1882 70.5758L95.2112 70.5758 95.2112 40.7259 99.3151 69.2906C99.3634 69.6118 99.2676 69.938 99.0526 70.1817Z" fill="#263238" fill-rule="evenodd" transform="matrix(1.01198 0 -0 1 67.1429 352.279)"/><path d="M82.3787 57.1721 48.482 57.1721C47.6681 57.1721 47.0082 57.8546 47.0082 58.6967 47.0082 59.5388 47.6681 60.2213 48.482 60.2213L82.3787 60.2213C83.1926 60.2213 83.8525 59.5388 83.8525 58.6967 83.8525 57.8546 83.1926 57.1721 82.3787 57.1721Z" fill="#263238" fill-rule="evenodd" transform="matrix(1.01198 0 -0 1 67.1429 352.279)"/><path d="M82.6429 41.9262 48.98 41.9262C48.1717 41.9262 47.5164 42.5518 47.5164 43.3238 47.5164 44.0957 48.1717 44.7213 48.98 44.7213L82.6429 44.7213C83.4512 44.7213 84.1066 44.0957 84.1066 43.3238 84.1066 42.5518 83.4512 41.9262 82.6429 41.9262Z" fill="#263238" fill-rule="evenodd" transform="matrix(1.01198 0 -0 1 67.1429 352.279)"/><path d="M82.3888 47.0082 48.7259 47.0082C47.9176 47.0082 47.2623 47.6338 47.2623 48.4057 47.2623 49.1777 47.9176 49.8033 48.7259 49.8033L82.3888 49.8033C83.1971 49.8033 83.8525 49.1777 83.8525 48.4057 83.8525 47.6338 83.1971 47.0082 82.3888 47.0082Z" fill="#263238" fill-rule="evenodd" transform="matrix(1.01198 0 -0 1 67.1429 352.279)"/><path d="M82.3888 52.0902 48.7259 52.0902C47.9176 52.0902 47.2623 52.7158 47.2623 53.4877 47.2623 54.2597 47.9176 54.8852 48.7259 54.8852L82.3888 54.8852C83.1971 54.8852 83.8525 54.2597 83.8525 53.4877 83.8525 52.7158 83.1971 52.0902 82.3888 52.0902Z" fill="#263238" fill-rule="evenodd" transform="matrix(1.01198 0 -0 1 67.1429 352.279)"/><path d="M49.8033 59.2761 49.8033 43.3797C49.8033 42.998 49.1777 42.6885 48.4057 42.6885 47.6338 42.6885 47.0082 42.998 47.0082 43.3797L47.0082 59.2761C47.0082 59.6577 47.6338 59.9672 48.4057 59.9672 49.1777 59.9672 49.8033 59.6577 49.8033 59.2761Z" fill="#263238" fill-rule="evenodd" transform="matrix(1.01198 0 -0 1 67.1429 352.279)"/><path d="M84.1066 59.52 84.1066 43.3898C84.1066 43.0026 83.5379 42.6885 82.8361 42.6885 82.1342 42.6885 81.5656 43.0026 81.5656 43.3898L81.5656 59.52C81.5656 59.9072 82.1342 60.2213 82.8361 60.2213 83.5379 60.2213 84.1066 59.9072 84.1066 59.52Z" fill="#263238" fill-rule="evenodd" transform="matrix(1.01198 0 -0 1 67.1429 352.279)"/><path d="M56.6639 59.2659 56.6639 43.1357C56.6639 42.7485 56.0953 42.4344 55.3934 42.4344 54.6916 42.4344 54.123 42.7485 54.123 43.1357L54.123 59.2659C54.123 59.6531 54.6916 59.9672 55.3934 59.9672 56.0953 59.9672 56.6639 59.6531 56.6639 59.2659Z" fill="#263238" fill-rule="evenodd" transform="matrix(1.01198 0 -0 1 67.1429 352.279)"/><path d="M63.5246 59.52 63.5246 43.3898C63.5246 43.0026 62.9559 42.6885 62.2541 42.6885 61.5523 42.6885 60.9836 43.0026 60.9836 43.3898L60.9836 59.52C60.9836 59.9072 61.5523 60.2213 62.2541 60.2213 62.9559 60.2213 63.5246 59.9072 63.5246 59.52Z" fill="#263238" fill-rule="evenodd" transform="matrix(1.01198 0 -0 1 67.1429 352.279)"/><path d="M70.8934 59.52 70.8934 43.3898C70.8934 43.0026 70.3248 42.6885 69.6229 42.6885 68.9211 42.6885 68.3525 43.0026 68.3525 43.3898L68.3525 59.52C68.3525 59.9072 68.9211 60.2213 69.6229 60.2213 70.3248 60.2213 70.8934 59.9072 70.8934 59.52Z" fill="#263238" fill-rule="evenodd" transform="matrix(1.01198 0 -0 1 67.1429 352.279)"/><path d="M77.5 59.0118 77.5 42.8816C77.5 42.4944 76.9313 42.1803 76.2295 42.1803 75.5277 42.1803 74.959 42.4944 74.959 42.8816L74.959 59.0118C74.959 59.3991 75.5277 59.7131 76.2295 59.7131 76.9313 59.7131 77.5 59.3991 77.5 59.0118Z" fill="#263238" fill-rule="evenodd" transform="matrix(1.01198 0 -0 1 67.1429 352.279)"/><path d="M84.9169 51.3573 80.6302 55.6933 78.7227 53.7639C78.1817 53.2166 77.3043 53.2166 76.7626 53.7639 76.2214 54.3115 76.2214 55.1993 76.7626 55.7466L79.6499 58.6672C79.9099 58.9302 80.2626 59.0779 80.63 59.0779 80.9977 59.0779 81.3501 58.9302 81.61 58.6672L86.877 53.3398C87.4182 52.7925 87.4182 51.9049 86.877 51.3571 86.3358 50.81 85.4584 50.81 84.9169 51.3573Z" stroke="#7F7F7F" stroke-width="0.254098" stroke-miterlimit="8" fill="#B13D7D" fill-rule="evenodd" transform="matrix(1.01198 0 -0 1 67.1429 352.279)"/></g></g></g></g><path d="M412 100.5C412 100.227 434.386 100 462 100 489.614 100 512 100.227 512 100.5 512 100.773 489.614 101 462 101 434.386 101 412 100.773 412 100.5Z" fill="#263238" fill-rule="evenodd"/><path d="M417 98.0001C417 98.552 416.552 99 416 99 415.448 99 415 98.552 415 98.0001 415 97.448 415.448 97 416 97 416.552 97 417 97.448 417 98.0001Z" fill="#263238" fill-rule="evenodd"/><path d="M419 98.0001C419 98.552 418.776 99 418.5 99 418.224 99 418 98.552 418 98.0001 418 97.448 418.224 97 418.5 97 418.776 97 419 97.448 419 98.0001Z" fill="#263238" fill-rule="evenodd"/><path d="M421 98.0001C421 98.552 420.776 99 420.5 99 420.224 99 420 98.552 420 98.0001 420 97.448 420.224 97 420.5 97 420.776 97 421 97.448 421 98.0001Z" fill="#263238" fill-rule="evenodd"/><path d="M421 107 445 107 445 131 421 131Z" fill="#263238" fill-rule="evenodd"/><path d="M505 113.5C505 113.773 492.682 114 477.5 114 462.318 114 450 113.773 450 113.5 450 113.227 462.311 113 477.5 113 492.689 113 505 113.227 505 113.5Z" fill="#263238" fill-rule="evenodd"/><path d="M505 118.5C505 118.773 492.682 119 477.5 119 462.318 119 450 118.773 450 118.5 450 118.227 462.311 118 477.5 118 492.689 118 505 118.204 505 118.5Z" fill="#263238" fill-rule="evenodd"/><path d="M485 123.416C484.882 123.488 484.762 123.488 484.644 123.416L483.624 123.416 479.874 123.709 467.496 124 455.126 123.875 451.376 123.584 450.349 123.584C450.233 123.654 450.116 123.654 450 123.584 450.116 123.488 450.234 123.488 450.349 123.584L451.376 123.584 455.126 123.291 467.496 123 479.874 123.291 483.624 123.584 484.644 123.584C484.76 123.429 484.88 123.375 485 123.416Z" fill="#263238" fill-rule="evenodd"/><path d="M468.975 136.237 468.404 136.237 466.725 136.237 460.214 136.187 435.825 135.927 435.912 135.927 424.069 147.269 423.83 147.5 423.83 147.168C423.83 143.751 423.83 140.095 423.83 136.295L423.982 136.447 412.746 136.447 412.695 136.404 412.551 136.252 412.5 136.201 412.5 136.136C412.5 123.855 412.5 110.187 412.5 95.6806L412.5 95.5001 448.168 95.5001 512.326 95.5506 512.5 95.5506 512.5 95.724C512.442 110.852 512.392 124.469 512.355 136.18L512.355 136.31 512.189 136.31 480.558 136.31 471.963 136.31 469.728 136.31C469.221 136.31 468.968 136.31 468.968 136.31L469.728 136.31 471.963 136.31 480.558 136.266 512.174 136.122 512.052 136.252C512.052 124.578 512.095 110.967 512.124 95.8324L512.29 96.0057 448.132 96.0057 412.645 96.0057 412.833 95.8251C412.833 110.339 412.833 124 412.833 136.281L412.782 136.165 412.934 136.317 412.818 136.274 424.126 136.274 424.126 136.425C424.126 140.225 424.126 143.881 424.126 147.298L423.888 147.197 435.775 135.862 435.811 135.826 435.861 135.826 460.243 136.194 466.754 136.31 468.425 136.346Z" stroke="#4E6672" stroke-miterlimit="8" fill="#263238" fill-rule="evenodd"/><path d="M339.007 281C336.798 281.004 335.004 279.216 335 277.007 334.996 274.798 336.784 273.004 338.993 273 341.202 272.996 342.996 274.784 343 276.993 343 276.998 343 277.002 343 277.007 343 279.212 341.212 281 339.007 281Z" fill="#B13F7D" fill-rule="evenodd"/><path d="M210.317 330.112C212.535 330.744 213.819 333.055 213.186 335.273 212.553 337.49 210.243 338.775 208.025 338.142 205.808 337.509 204.523 335.198 205.156 332.981 205.789 330.763 208.1 329.479 210.317 330.112Z" fill="#B13F7D" fill-rule="evenodd"/><path d="M426 152C426 154.209 423.985 156 421.5 156 419.015 156 417 154.209 417 152 417 149.791 419.015 148 421.5 148 423.985 148 426 149.791 426 152Z" fill="#B13F7D" fill-rule="evenodd"/><path d="M487 216C487 218.209 484.985 220 482.5 220 480.015 220 478 218.209 478 216 478 213.791 480.015 212 482.5 212 484.985 212 487 213.791 487 216Z" fill="#B13F7D" fill-rule="evenodd"/><path d="M559 82C559 84.2092 556.985 86.0001 554.5 86.0001 552.015 86.0001 550 84.2092 550 82 550 79.7909 552.015 78 554.5 78 556.985 78 559 79.7909 559 82Z" fill="#B13F7D" fill-rule="evenodd"/><path d="M279 229C279 231.209 276.985 233 274.5 233 272.015 233 270 231.209 270 229 270 226.791 272.015 225 274.5 225 276.985 225 279 226.791 279 229Z" fill="#B13F7D" fill-rule="evenodd"/><path d="M554 82 553.674 82.6368 552.683 84.5037C551.807 86.1608 550.511 88.5994 548.81 91.7833L534.101 119.353C521.404 143.073 503.292 176.895 481.641 217.317L481.533 217.519 481.381 217.353 420.162 151.916 420.452 151.916 389.492 199.4 337.792 278.6 337.684 278.766 337.532 278.643 274.554 228.258 274.779 228.222 226.938 305.236 213.684 326.525C212.163 328.971 210.991 330.867 210.202 332.104L209 334C209 334 209.391 333.341 210.165 332.075L213.611 326.482C216.637 321.568 221.096 314.361 226.786 305.142L274.504 228.062 274.591 227.918 274.728 228.019 337.749 278.361 337.488 278.404 389.144 199.176 420.112 151.692 420.242 151.489 420.401 151.663 481.591 217.143 481.323 217.143C503.039 176.743 521.172 142.943 533.905 119.245L548.716 91.7472 552.639 84.511C553.081 83.6933 553.421 83.0638 553.653 82.6512 553.884 82.2388 554 82 554 82Z" fill="#B13F7D" fill-rule="evenodd"/><path d="M358 120.49C357.995 118.557 356.648 116.994 354.991 117 353.334 117.006 351.995 118.578 352 120.511 352.005 122.439 353.347 124 355 124 356.657 124 358 122.433 358 120.5 358 120.497 358 120.493 358 120.49Z" fill="#FFFFFF" fill-rule="evenodd"/><path d="M474 390.686 466.163 398 444 398 444 370 474 370Z" fill="#B13D7D" fill-rule="evenodd"/><path d="M444 370 445 370 445 398 444 398Z" fill="#B13D7D" fill-rule="evenodd"/><path d="M473 370 473 392 474 390.727 474 370Z" fill="#B13D7D" fill-rule="evenodd"/><path d="M466.505 398 443.285 398C443.128 398 443 397.888 443 397.751L443 370.249C443 370.112 443.128 370 443.285 370L474.715 370C474.872 370 475 370.112 475 370.249L475 390.567C475 390.633 474.97 390.696 474.916 390.743L466.706 397.927C466.653 397.974 466.58 398 466.505 398ZM443.57 397.501 466.387 397.501 474.43 390.463 474.43 370.499 443.57 370.499ZM474.715 390.567 474.716 390.567Z" fill="#690589" fill-rule="evenodd"/><path d="M466 398 466 391 474 391Z" fill="#BFBFBF" fill-rule="evenodd"/><path d="M466.292 398C466.255 398 466.217 397.994 466.18 397.983 466.071 397.948 466 397.865 466 397.773L466 391.227C466 391.102 466.131 391 466.292 391L474.708 391C474.826 391 474.932 391.055 474.978 391.14 475.023 391.225 474.998 391.323 474.914 391.388L466.499 397.933C466.443 397.977 466.368 398 466.292 398ZM466.584 391.455 466.584 397.224 474.002 391.455Z" fill="#690589" fill-rule="evenodd"/><path d="M445.5 377C445.224 377 445 376.888 445 376.75L445 375.25C445 375.112 445.224 375 445.5 375 445.776 375 446 375.112 446 375.25L446 376.75C446 376.888 445.776 377 445.5 377Z" fill="#690589" fill-rule="evenodd"/><path d="M457 366 461 366 461 373 457 373Z" fill="#F4EFED" fill-rule="evenodd"/><path d="M460 366 461 366 461 373 460 373Z" fill="#D6D1CF" fill-rule="evenodd"/><path d="M457 366 458 366 458 373 457 373Z" fill="#FFFFFF" fill-rule="evenodd"/><path d="M460.729 374 457.271 374C457.121 374 457 373.879 457 373.729L457 366.271C457 366.121 457.121 366 457.271 366L460.729 366C460.879 366 461 366.121 461 366.271L461 373.729C461 373.879 460.879 374 460.729 374ZM457.542 373.458 460.458 373.458 460.458 366.542 457.542 366.542Z" fill="#690589" fill-rule="evenodd"/><g clip-path="url(#clip13)"><g clip-path="url(#clip14)"><g clip-path="url(#clip15)"><path d="M12.783 1.64247C11.7153 0.582322 10.3018 3.43512e-05 8.79817 3.43512e-05 8.78457 3.43512e-05 8.77065 6.87024e-05 8.75705 0.000171756 7.28909 0.0105115 5.8992 0.585654 4.84338 1.61966 3.78736 2.65387 3.18377 4.03149 3.14389 5.49867 3.10229 7.02761 3.66232 8.47568 4.72082 9.57619 5.55435 10.4428 6.01339 11.5955 6.01339 12.8219L6.01339 15.1812C6.01339 15.6659 6.34993 16.0733 6.80151 16.1826L6.80151 16.4972C6.80151 17.0986 7.29077 17.5878 7.89216 17.5878L9.6956 17.5878C10.297 17.5878 10.7862 17.0986 10.7862 16.4972L10.7862 16.1844C11.2418 16.0779 11.5822 15.6687 11.5822 15.1812L11.5822 12.822C11.5822 11.6116 12.0538 10.4456 12.9103 9.53885 13.9057 8.48506 14.4539 7.10613 14.4539 5.65606 14.4539 4.13774 13.8605 2.71234 12.783 1.64247ZM10.0993 16.4972C10.0993 16.7198 9.91819 16.9008 9.69563 16.9008L7.89219 16.9008C7.66963 16.9008 7.48856 16.7198 7.48856 16.4972L7.48856 16.2116 10.0993 16.2116 10.0993 16.4972ZM10.8952 15.1812C10.8952 15.3706 10.7412 15.5246 10.5518 15.5246L10.4428 15.5246 7.14505 15.5246 7.04385 15.5246C6.85448 15.5246 6.70045 15.3706 6.70045 15.1812L6.70045 13.2275 10.8952 13.2275 10.8952 15.1812ZM8.2582 12.5405 8.2582 8.19548 9.32838 8.19548 9.32838 12.5404 8.2582 12.5404ZM12.4109 9.06707C11.4999 10.0317 10.9703 11.2557 10.9026 12.5404L10.0154 12.5404 10.0154 8.19548 10.3242 8.19548C10.8732 8.19548 11.32 7.74878 11.32 7.19967L11.32 7.14643C11.32 6.59732 10.8732 6.15062 10.3242 6.15062 9.77508 6.15062 9.32838 6.59732 9.32838 7.14643L9.32838 7.50845 8.2582 7.50845 8.2582 7.14643C8.2582 6.59732 7.8115 6.15062 7.26243 6.15062L7.19476 6.15062C6.64569 6.15062 6.19899 6.59732 6.19899 7.14643L6.19899 7.19967C6.19899 7.74874 6.64569 8.19548 7.19476 8.19548L7.57118 8.19548 7.57118 12.5404 6.69337 12.5404C6.62779 11.2412 6.10905 10.0284 5.21599 9.09991 4.2861 8.13313 3.79409 6.8608 3.83068 5.51735 3.90261 2.87265 6.11472 0.705849 8.7619 0.687162 10.098 0.677784 11.3525 1.19017 12.299 2.12998 13.2456 3.0699 13.7669 4.32217 13.7669 5.65606 13.7669 6.93001 13.2853 8.14138 12.4109 9.06707ZM10.0154 7.50845 10.0154 7.14643C10.0154 6.97615 10.1539 6.83764 10.3242 6.83764 10.4944 6.83764 10.6329 6.97618 10.6329 7.14643L10.6329 7.19967C10.6329 7.36995 10.4944 7.50845 10.3242 7.50845L10.0154 7.50845ZM7.57115 7.14643 7.57115 7.50845 7.57115 7.50845 7.19472 7.50845C7.02448 7.50845 6.88598 7.36995 6.88598 7.19967L6.88598 7.14643C6.88598 6.97615 7.02448 6.83764 7.19472 6.83764L7.2624 6.83764C7.43264 6.83764 7.57115 6.97622 7.57115 7.14643Z" fill="#D9D9D9" transform="matrix(1.06338 0.232174 -0.213311 0.976984 450.893 375.164)"/><path d="M12.48 4.16903C12.185 3.43646 11.6831 2.81302 11.0287 2.36611 10.358 1.90804 9.57176 1.66895 8.75705 1.67469 8.56733 1.67603 8.4146 1.83092 8.41594 2.02064 8.41728 2.20954 8.57083 2.36171 8.75939 2.36171 8.76021 2.36171 8.76107 2.36171 8.76186 2.36171 8.76993 2.36168 8.7778 2.36165 8.78584 2.36165 10.1386 2.36165 11.3368 3.16976 11.8428 4.42574 11.8968 4.55964 12.0255 4.64099 12.1615 4.64099 12.2043 4.64099 12.2478 4.63298 12.2898 4.61601 12.4657 4.54511 12.551 4.34498 12.48 4.16903Z" fill="#D9D9D9" transform="matrix(1.06338 0.232174 -0.213311 0.976984 450.893 375.164)"/><path d="M12.6667 5.4131C12.6028 5.34921 12.5141 5.31245 12.4238 5.31245 12.3335 5.31245 12.2448 5.34921 12.1809 5.4131 12.1167 5.47699 12.0803 5.56562 12.0803 5.65596 12.0803 5.74665 12.1167 5.83493 12.1809 5.89882 12.2448 5.96306 12.3331 5.99947 12.4238 5.99947 12.5141 5.99947 12.6028 5.96306 12.6667 5.89882 12.7305 5.83493 12.7673 5.74665 12.7673 5.65596 12.7673 5.56562 12.7306 5.47699 12.6667 5.4131Z" fill="#D9D9D9" transform="matrix(1.06338 0.232174 -0.213311 0.976984 450.893 375.164)"/><path d="M15.9537 1.711C15.8196 1.57686 15.6021 1.57686 15.4679 1.711L14.8279 2.351C14.6938 2.48514 14.6938 2.70265 14.8279 2.83683 14.895 2.90391 14.9829 2.93744 15.0708 2.93744 15.1588 2.93744 15.2466 2.90391 15.3137 2.83683L15.9537 2.19683C16.0879 2.06269 16.0879 1.84518 15.9537 1.711Z" fill="#D9D9D9" transform="matrix(1.06338 0.232174 -0.213311 0.976984 450.893 375.164)"/><path d="M15.9537 9.11537 15.3137 8.47537C15.1796 8.34123 14.9622 8.34123 14.8279 8.47537 14.6938 8.60951 14.6938 8.82703 14.8279 8.96117L15.4679 9.60116C15.535 9.66825 15.6229 9.70178 15.7108 9.70178 15.7987 9.70178 15.8866 9.66822 15.9537 9.60116 16.0878 9.46702 16.0878 9.24951 15.9537 9.11537Z" fill="#D9D9D9" transform="matrix(1.06338 0.232174 -0.213311 0.976984 450.893 375.164)"/><path d="M17.2443 5.31259 16.3392 5.31259C16.1495 5.31259 15.9957 5.46638 15.9957 5.6561 15.9957 5.84582 16.1495 5.99961 16.3392 5.99961L17.2443 5.99961C17.434 5.99961 17.5878 5.84582 17.5878 5.6561 17.5878 5.46638 17.434 5.31259 17.2443 5.31259Z" fill="#D9D9D9" transform="matrix(1.06338 0.232174 -0.213311 0.976984 450.893 375.164)"/><path d="M2.75988 2.35103 2.11992 1.71103C1.98574 1.57689 1.7683 1.57689 1.63409 1.71103 1.49995 1.84518 1.49995 2.06269 1.63409 2.19686L2.27408 2.83686C2.34117 2.90395 2.42908 2.93748 2.51698 2.93748 2.60489 2.93748 2.69279 2.90395 2.75988 2.83686 2.89402 2.70268 2.89402 2.48521 2.75988 2.35103Z" fill="#D9D9D9" transform="matrix(1.06338 0.232174 -0.213311 0.976984 450.893 375.164)"/><path d="M2.75988 8.47534C2.62574 8.34116 2.40826 8.34116 2.27408 8.47534L1.63409 9.11537C1.49995 9.24951 1.49995 9.46702 1.63409 9.60116 1.70118 9.66825 1.78908 9.70178 1.87698 9.70178 1.96489 9.70178 2.05279 9.66822 2.11988 9.60116L2.75988 8.96117C2.89402 8.82699 2.89402 8.60951 2.75988 8.47534Z" fill="#D9D9D9" transform="matrix(1.06338 0.232174 -0.213311 0.976984 450.893 375.164)"/><path d="M1.24863 5.31259 0.343512 5.31259C0.153825 5.31259 0 5.46638 0 5.6561 0 5.84582 0.153825 5.99961 0.343512 5.99961L1.24863 5.99961C1.43832 5.99961 1.59214 5.84582 1.59214 5.6561 1.59214 5.46638 1.43832 5.31259 1.24863 5.31259Z" fill="#D9D9D9" transform="matrix(1.06338 0.232174 -0.213311 0.976984 450.893 375.164)"/></g></g></g><path d="M180.5 372.5 289.92 372.5" stroke="#263238" stroke-miterlimit="8" fill="none" fill-rule="evenodd"/><path d="M180.5 376.5 289.92 376.5" stroke="#263238" stroke-miterlimit="8" fill="none" fill-rule="evenodd"/><path d="M180.5 380.5 289.92 380.5" stroke="#263238" stroke-miterlimit="8" fill="none" fill-rule="evenodd"/><path d="M180.5 384.5 289.92 384.5" stroke="#263238" stroke-miterlimit="8" fill="none" fill-rule="evenodd"/><path d="M180.5 388.5 289.92 388.5" stroke="#263238" stroke-miterlimit="8" fill="none" fill-rule="evenodd"/><path d="M180.5 392.5 289.92 392.5" stroke="#263238" stroke-miterlimit="8" fill="none" fill-rule="evenodd"/></g></svg>