<svg width="514" height="514" xmlns="http://www.w3.org/2000/svg" xmlns:xlink="http://www.w3.org/1999/xlink" overflow="hidden"><defs><clipPath id="clip0"><path d="M383 103 897 103 897 617 383 617Z" fill-rule="evenodd" clip-rule="evenodd"/></clipPath></defs><g clip-path="url(#clip0)" transform="translate(-383 -103)"><path d="M800 616 480 616C426.976 616 384 573.024 384 520L384 200C384 146.976 426.976 104 480 104L800 104C853.024 104 896 146.976 896 200L896 520C896 573.024 853.024 616 800 616Z" fill="#9B437C" fill-rule="evenodd"/><path d="M640 237C569.28 237 512 293.476 512 363.124 512 418.862 548.672 466.128 599.52 482.782 605.92 483.969 608.272 480.071 608.272 476.718 608.272 473.717 608.16 465.791 608.112 455.282 572.512 462.887 564.992 438.356 564.992 438.356 559.168 423.803 550.752 419.905 550.752 419.905 539.152 412.091 551.648 412.236 551.648 412.236 564.496 413.118 571.248 425.231 571.248 425.231 582.656 444.517 601.216 438.949 608.528 435.724 609.68 427.574 612.976 422.006 616.64 418.862 588.208 415.701 558.336 404.855 558.336 356.53 558.336 342.764 563.296 331.517 571.504 322.692 570.064 319.516 565.744 306.68 572.624 289.304 572.624 289.304 583.344 285.919 607.824 302.236 618.064 299.428 628.944 298.048 639.824 297.984 650.704 298.048 661.584 299.428 671.824 302.236 696.144 285.919 706.864 289.304 706.864 289.304 713.744 306.68 709.424 319.5 708.144 322.692 716.304 331.517 721.264 342.764 721.264 356.53 721.264 404.984 691.344 415.653 662.864 418.75 667.344 422.536 671.504 430.269 671.504 442.078 671.504 458.957 671.344 472.514 671.344 476.621 671.344 479.926 673.584 483.873 680.144 482.606 731.36 466.08 768 418.782 768 363.14 768 293.476 710.688 237 640 237Z" fill="#351629" fill-rule="evenodd"/></g></svg>