<svg width="438.536" height="438.536" viewBox="0 0 438.536 438.536" xmlns="http://www.w3.org/2000/svg" xmlns:xlink="http://www.w3.org/1999/xlink" id="Capa_1" overflow="hidden"><g><path d="M414.41 24.123C398.333 8.042 378.963 0 356.315 0L82.228 0C59.58 0 40.21 8.042 24.126 24.123 8.045 40.207 0.003 59.576 0.003 82.225L0.003 356.309C0.003 378.956 8.045 398.327 24.126 414.411 40.21 430.495 59.58 438.537 82.228 438.537L356.312 438.537C378.96 438.537 398.33 430.495 414.407 414.411 430.491 398.327 438.533 378.957 438.533 356.309L438.533 82.225C438.532 59.576 430.49 40.204 414.41 24.123ZM124.486 292.64 71.665 292.64C68.619 292.64 66.335 291.398 64.814 288.92 63.101 286.257 63.101 283.595 64.814 280.929L120.775 182.15 120.775 181.866 85.083 120.19C83.562 116.956 83.468 114.194 84.799 111.913 86.32 109.821 88.795 108.771 92.222 108.771L144.754 108.771C150.652 108.771 155.601 112.01 159.599 118.483 183.581 160.545 195.573 181.671 195.573 181.865L138.762 282.355C135.146 289.207 130.388 292.64 124.486 292.64ZM373.724 47.967 256.953 254.383 256.953 254.67 331.189 390.565C332.897 393.419 333 396.088 331.47 398.559 330.142 400.841 327.764 401.988 324.338 401.988L271.804 401.988C265.713 401.988 260.764 398.655 256.959 391.996 207.281 300.826 182.347 255.048 182.159 254.668L299.501 46.529C303.118 39.864 307.778 36.535 313.487 36.535L366.88 36.535C370.11 36.535 372.389 37.678 373.731 39.962 375.253 42.25 375.253 44.917 373.724 47.967Z" fill="#ADB9CA"/></g><g></g><g></g><g></g><g></g><g></g><g></g><g></g><g></g><g></g><g></g><g></g><g></g><g></g><g></g><g></g></svg>